<svg width="247" height="232" viewBox="0 0 247 232" fill="none" xmlns="http://www.w3.org/2000/svg">
<path d="M85.942 112.514C92.7936 109.239 98.1597 104.328 102.04 97.7797C105.921 91.2312 107.861 83.5611 107.861 74.7692C107.861 71.9194 107.528 69.2818 106.861 66.8564C106.254 64.4311 105.314 62.3392 104.041 60.5808C102.768 58.8225 101.191 57.4582 99.3117 56.4881C97.4321 55.4573 95.2796 54.9419 92.8542 54.9419C88.9737 54.9419 85.0931 55.7605 81.2125 57.3976C77.332 59.0347 73.5121 61.3085 69.7528 64.2189C65.9935 67.1293 62.3554 70.5854 58.8387 74.5873C55.3826 78.5284 52.1083 82.8334 49.016 87.5022C45.9843 92.171 43.1952 97.0824 40.6485 102.236C38.1019 107.39 35.9191 112.605 34.1001 117.88C32.2811 123.155 30.8562 128.369 29.8254 133.523C28.8553 138.677 28.3702 143.619 28.3702 148.348C28.3702 153.563 28.9159 158.019 30.0073 161.718C31.0987 165.417 32.6146 168.479 34.5549 170.904C36.4951 173.329 38.7992 175.118 41.4671 176.27C44.135 177.362 47.0757 177.907 50.2893 177.907C50.8957 177.907 52.1386 177.847 54.0183 177.725C55.9586 177.543 58.293 177.028 61.0215 176.179C63.8107 175.33 66.903 174.027 70.2985 172.268C73.694 170.51 77.1804 167.994 80.7578 164.719L83.0316 167.994C79.151 171.753 75.2704 174.694 71.3899 176.816C67.5699 178.938 64.0229 180.514 60.7486 181.545C57.5351 182.515 54.7156 183.091 52.2902 183.273C49.9255 183.516 48.2884 183.637 47.3789 183.637C44.044 183.637 40.497 183.091 36.7377 182C33.039 180.909 29.6132 179.059 26.4602 176.452C23.3073 173.784 20.6697 170.237 18.5475 165.811C16.486 161.324 15.4552 155.715 15.4552 148.985C15.4552 142.618 16.1222 136.343 17.4561 130.158C18.8507 123.973 20.7607 118.001 23.186 112.241C25.672 106.481 28.5521 100.993 31.8263 95.7788C35.1612 90.5036 38.7386 85.6226 42.5585 81.1357C46.4391 76.6488 50.5015 72.5863 54.7459 68.9483C58.9903 65.3103 63.2346 62.218 67.479 59.6713C71.7234 57.0641 75.9071 55.0632 80.0302 53.6686C84.1533 52.274 88.0338 51.5767 91.6719 51.5767C95.5524 51.5767 99.0995 52.1528 102.313 53.3048C105.527 54.4568 108.286 56.0939 110.59 58.2161C112.954 60.3383 114.773 62.8849 116.047 65.856C117.381 68.7664 118.048 72.0103 118.048 75.5877C118.048 79.5895 117.229 83.652 115.592 87.7751C113.955 91.8376 111.742 95.6575 108.953 99.2349C106.163 102.752 102.919 105.905 99.2208 108.694C95.5828 111.483 91.7628 113.575 87.761 114.969L85.942 112.514ZM181.804 112.514C188.656 109.239 194.022 104.328 197.902 97.7797C201.783 91.2312 203.723 83.5611 203.723 74.7692C203.723 71.9194 203.39 69.2818 202.723 66.8564C202.116 64.4311 201.176 62.3392 199.903 60.5808C198.63 58.8225 197.053 57.4582 195.174 56.4881C193.294 55.4573 191.142 54.9419 188.716 54.9419C184.836 54.9419 180.955 55.7605 177.075 57.3976C173.194 59.0347 169.374 61.3085 165.615 64.2189C161.855 67.1293 158.217 70.5854 154.701 74.5873C151.245 78.5284 147.97 82.8334 144.878 87.5022C141.846 92.171 139.057 97.0824 136.511 102.236C133.964 107.39 131.781 112.605 129.962 117.88C128.143 123.155 126.718 128.369 125.687 133.523C124.717 138.677 124.232 143.619 124.232 148.348C124.232 153.563 124.778 158.019 125.869 161.718C126.961 165.417 128.477 168.479 130.417 170.904C132.357 173.329 134.661 175.118 137.329 176.27C139.997 177.362 142.938 177.907 146.151 177.907C146.758 177.907 148.001 177.847 149.88 177.725C151.821 177.543 154.155 177.028 156.884 176.179C159.673 175.33 162.765 174.027 166.16 172.268C169.556 170.51 173.042 167.994 176.62 164.719L178.894 167.994C175.013 171.753 171.132 174.694 167.252 176.816C163.432 178.938 159.885 180.514 156.611 181.545C153.397 182.515 150.578 183.091 148.152 183.273C145.788 183.516 144.15 183.637 143.241 183.637C139.906 183.637 136.359 183.091 132.6 182C128.901 180.909 125.475 179.059 122.322 176.452C119.169 173.784 116.532 170.237 114.41 165.811C112.348 161.324 111.317 155.715 111.317 148.985C111.317 142.618 111.984 136.343 113.318 130.158C114.713 123.973 116.623 118.001 119.048 112.241C121.534 106.481 124.414 100.993 127.688 95.7788C131.023 90.5036 134.601 85.6226 138.421 81.1357C142.301 76.6488 146.364 72.5863 150.608 68.9483C154.852 65.3103 159.097 62.218 163.341 59.6713C167.585 57.0641 171.769 55.0632 175.892 53.6686C180.015 52.274 183.896 51.5767 187.534 51.5767C191.414 51.5767 194.962 52.1528 198.175 53.3048C201.389 54.4568 204.148 56.0939 206.452 58.2161C208.816 60.3383 210.635 62.8849 211.909 65.856C213.243 68.7664 213.91 72.0103 213.91 75.5877C213.91 79.5895 213.091 83.652 211.454 87.7751C209.817 91.8376 207.604 95.6575 204.815 99.2349C202.025 102.752 198.781 105.905 195.083 108.694C191.445 111.483 187.625 113.575 183.623 114.969L181.804 112.514Z" fill="#913230"/>
</svg>
